<svg xmlns="http://www.w3.org/2000/svg" viewBox="0 0 24 24" fill="#1DB954">
  <path d="M12 2C6.477 2 2 6.477 2 12s4.477 10 10 10 10-4.477 10-10S17.523 2 12 2zm4.586 14.424c-.18.295-.563.387-.857.207-2.35-1.434-5.305-1.76-8.786-.963-.335.077-.67-.133-.746-.47-.077-.334.132-.67.47-.745 3.808-.87 7.076-.496 9.712 1.115.293.18.386.563.207.856zm1.268-2.838c-.225.368-.705.483-1.072.258-2.686-1.65-6.784-2.13-9.965-1.166-.413.127-.85-.106-.975-.52-.126-.413.106-.85.52-.974 3.65-1.11 8.19-.58 11.235 1.295.367.225.483.704.257 1.072zm.106-2.964C14.73 8.71 9.352 8.498 5.438 9.687c-.494.15-1.015-.128-1.166-.623-.15-.495.128-1.015.623-1.166 4.49-1.364 10.435-1.11 14.246 1.15.442.26.586.837.324 1.28-.26.442-.837.586-1.28.324z"/>
</svg>
